<?xml version="1.0" encoding="UTF-8" standalone="no"?>
<svg
   height="128px"
   viewBox="0 0 128 128"
   width="128px"
   version="1.1"
   id="svg6"
   sodipodi:docname="plugin-logo.svg"
   inkscape:export-filename="plugin-logo.png"
   inkscape:export-xdpi="384"
   inkscape:export-ydpi="384"
   inkscape:version="1.3.2 (091e20ef0f, 2023-11-25)"
   xmlns:inkscape="http://www.inkscape.org/namespaces/inkscape"
   xmlns:sodipodi="http://sodipodi.sourceforge.net/DTD/sodipodi-0.dtd"
   xmlns="http://www.w3.org/2000/svg"
   xmlns:svg="http://www.w3.org/2000/svg">
  <defs
     id="defs6" />
  <sodipodi:namedview
     id="namedview6"
     pagecolor="#ffffff"
     bordercolor="#000000"
     borderopacity="0.25"
     inkscape:showpageshadow="2"
     inkscape:pageopacity="0.0"
     inkscape:pagecheckerboard="0"
     inkscape:deskcolor="#d1d1d1"
     inkscape:zoom="9.0546875"
     inkscape:cx="63.94478"
     inkscape:cy="64"
     inkscape:window-width="2560"
     inkscape:window-height="1371"
     inkscape:window-x="0"
     inkscape:window-y="0"
     inkscape:window-maximized="1"
     inkscape:current-layer="svg6" />
  <path
     d="m 39.8125 108.652344 h 41.765625 v 7.578125 h -41.765625 z m 0 0"
     fill="#434d56"
     id="path1" />
  <path
     d="m 86.285156 45.714844 v 1.855468 c 0 7.203126 -5.796875 13 -13 13 h -26 c -7.203125 0 -13 -5.796874 -13 -13 v -0.855468 c -2.21875 1.28125 -3.714844 3.671875 -3.714844 6.429687 v 29.710938 c 0 4.117187 3.3125 7.429687 7.429688 7.429687 h 3.714844 v 7.429688 c 0 4.113281 3.3125 7.429687 7.429687 7.429687 h 22.285157 c 4.113281 0 7.425781 -3.316406 7.425781 -7.429687 v -7.429688 h 29.714843 c 4.117188 0 7.429688 -3.3125 7.429688 -7.429687 v -29.710938 c 0 -4.117187 -3.3125 -7.429687 -7.429688 -7.429687 z m 0 0"
     fill="#914014"
     id="path2" />
  <path
     d="m 19.429688 16 c -4.117188 0 -7.429688 3.3125 -7.429688 7.429688 v 89.140624 c 0 4.117188 3.3125 7.429688 7.429688 7.429688 h 74.285156 c 4.113281 0 7.429687 -3.3125 7.429687 -7.429688 v -14.855468 h -14.859375 v 1.855468 c 0 7.203126 -5.796875 13 -13 13 h -26 c -7.203125 0 -13 -5.796874 -13 -13 v -1.855468 c -6.179687 -0.015625 -11.140625 -4.988282 -11.140625 -11.171875 v -37.085938 c 0 -6.191406 4.976563 -11.171875 11.171875 -11.171875 h 7.398438 v 7.429688 c 0 4.113281 3.3125 7.429687 7.429687 7.429687 h 22.285157 c 4.113281 0 7.425781 -3.316406 7.425781 -7.429687 v -7.429688 h 22.289062 v -14.855468 c 0 -4.117188 -3.316406 -7.429688 -7.429687 -7.429688 z m 0 0"
     fill="#434d56"
     id="path3" />
  <path
     d="m 19.429688 8 c -4.117188 0 -7.429688 3.3125 -7.429688 7.429688 v 89.140624 c 0 4.117188 3.3125 7.429688 7.429688 7.429688 h 74.285156 c 4.113281 0 7.429687 -3.3125 7.429687 -7.429688 v -14.855468 h -14.859375 v 1.855468 c 0 7.203126 -5.796875 13 -13 13 h -26 c -7.203125 0 -13 -5.796874 -13 -13 v -1.855468 c -6.179687 -0.015625 -11.140625 -4.988282 -11.140625 -11.171875 v -37.085938 c 0 -6.191406 4.976563 -11.171875 11.171875 -11.171875 h 7.398438 v 7.429688 c 0 4.113281 3.3125 7.429687 7.429687 7.429687 h 22.285157 c 4.113281 0 7.425781 -3.316406 7.425781 -7.429687 v -7.429688 h 22.289062 v -14.855468 c 0 -4.117188 -3.316406 -7.429688 -7.429687 -7.429688 z m 0 0"
     fill="#708090"
     id="path4" />
  <path
     d="m 86.285156 37.714844 v 1.855468 c 0 7.203126 -5.796875 13 -13 13 h -26 c -7.203125 0 -13 -5.796874 -13 -13 v -0.855468 c -2.21875 1.28125 -3.714844 3.671875 -3.714844 6.429687 v 29.710938 c 0 4.117187 3.3125 7.429687 7.429688 7.429687 h 3.714844 v 7.429688 c 0 4.113281 3.3125 7.429687 7.429687 7.429687 h 22.285157 c 4.113281 0 7.425781 -3.316406 7.425781 -7.429687 v -7.429688 h 29.714843 c 4.117188 0 7.429688 -3.3125 7.429688 -7.429687 v -29.710938 c 0 -4.117187 -3.3125 -7.429687 -7.429688 -7.429687 z m 0 0"
     fill="#f16a22"
     id="path5" />
  <path
     d="m 93.0625 72.851562 c -2.398438 0 -6.566406 -1.171874 -12.140625 -3.40625 c 5.175781 -2.488281 9.3125 -3.785156 12.140625 -3.785156 c 3.050781 0 3.648438 1.367188 3.648438 3.726563 c 0 2.953125 -0.957032 3.464843 -3.648438 3.464843 z m -39.527344 -3.605468 c -3.054687 0 -3.652344 -1.367188 -3.652344 -3.722656 c 0 -2.953126 0.957032 -3.464844 3.652344 -3.464844 c 2.398438 0 6.5625 1.167968 12.140625 3.402344 c -5.175781 2.488281 -9.316406 3.785156 -12.140625 3.785156 z m 39.527344 -6.441406 c -4.265625 0 -10.136719 2.367187 -15.585938 5.160156 l -5.289062 -2.671875 c 4.308594 -2.394531 8.082031 -4.832031 10.144531 -6.214844 l 0.945313 -0.632813 c 0.191406 -0.152343 0.316406 -0.371093 0.347656 -0.613281 c 0.027344 -0.242187 -0.035156 -0.488281 -0.1875 -0.679687 l -0.539062 -0.757813 c -0.304688 -0.4375 -0.839844 -0.59375 -1.183594 -0.351562 l -0.210938 0.136719 c -1.648437 1.121093 -5.574218 3.722656 -10.15625 6.300781 c -0.792968 0.445312 -1.566406 0.867187 -2.324218 1.273437 c -7.15625 -3.023437 -12.367188 -4.5625 -15.5 -4.5625 c -3.039063 0 -6.523438 0.71875 -6.523438 6.324219 c 0 3.003906 1.132812 6.585937 6.523438 6.585937 c 4.265624 0 10.132812 -2.367187 15.582031 -5.164062 l 5.28125 2.683594 c -4.082031 2.265625 -7.664063 4.5625 -9.789063 5.980468 l -1.230468 0.804688 c -0.207032 0.148438 -0.351563 0.371094 -0.394532 0.621094 c -0.039062 0.253906 0.015625 0.511718 0.164063 0.71875 l 0.539062 0.757812 c 0.136719 0.210938 0.351563 0.355469 0.601563 0.40625 c 0.246094 0.046875 0.5 0 0.710937 -0.136718 l 0.765625 -0.507813 c 1.914063 -1.28125 5.4375 -3.566406 9.472656 -5.835937 c 0.792969 -0.449219 1.566407 -0.871094 2.320313 -1.277344 c 7.160156 3.023437 12.371094 4.5625 15.503906 4.5625 c 3.039063 0 6.519531 -0.71875 6.519531 -6.324219 c 0 -3.003906 -1.128906 -6.582031 -6.519531 -6.582031"
     fill="#f9f9f9"
     id="path6" />
</svg>
