<?xml version="1.0" encoding="UTF-8" standalone="no"?>
<svg
   width="16"
   height="16"
   version="1.1"
   viewBox="0 0 16 16"
   id="svg9"
   sodipodi:docname="plugin-logo.svg"
   inkscape:version="1.3.2 (091e20ef0f, 2023-11-25)"
   xmlns:inkscape="http://www.inkscape.org/namespaces/inkscape"
   xmlns:sodipodi="http://sodipodi.sourceforge.net/DTD/sodipodi-0.dtd"
   xmlns="http://www.w3.org/2000/svg"
   xmlns:svg="http://www.w3.org/2000/svg">
  <defs
     id="defs9" />
  <sodipodi:namedview
     id="namedview9"
     pagecolor="#ffffff"
     bordercolor="#666666"
     borderopacity="1.0"
     inkscape:showpageshadow="2"
     inkscape:pageopacity="0.0"
     inkscape:pagecheckerboard="0"
     inkscape:deskcolor="#d1d1d1"
     showgrid="false"
     inkscape:zoom="32"
     inkscape:cx="5.625"
     inkscape:cy="8.015625"
     inkscape:window-width="1015"
     inkscape:window-height="835"
     inkscape:window-x="26"
     inkscape:window-y="23"
     inkscape:window-maximized="0"
     inkscape:current-layer="svg9" />
  <path
     d="M 2,1 C 1.446,1 1,1.446 1,2 v 12 c 0,0.554 0.446,1 1,1 h 10 c 0.554,0 1,-0.446 1,-1 v -2 h -2 v 0.25 C 11,13.2195 10.2195,14 9.25,14 H 5.75 C 4.7805,14 4,13.2195 4,12.25 V 12 C 3.16816,11.997886 2.5,11.32845 2.5,10.4961 V 5.5039 C 2.5,4.67023 3.17024,4 4.0039,4 h 0.99609 v 1 c 0,0.554 0.446,1 1,1 h 3 c 0.554,0 1,-0.446 1,-1 V 4 h 3 V 2 c 0,-0.554 -0.446,-1 -1,-1 h -10 z"
     fill="#ff9741"
     stroke-dasharray="5, 5"
     stroke-width="5"
     id="path1"
     style="stroke:#ff0000;stroke-width:0;stroke-dasharray:none;stroke-dashoffset:0;fill:#9989df;fill-opacity:1" />
  <path
     d="M 11,5 V 5.25 C 11,6.2195 10.2195,7 9.25,7 H 5.75 C 4.7805,7 4,6.2195 4,5.25 V 5.13477 C 3.70121,5.30732 3.5,5.6288 3.5,6 v 4 c 0,0.554 0.446,1 1,1 H 5 v 1 c 0,0.554 0.446,1 1,1 h 3 c 0.554,0 1,-0.446 1,-1 v -1 h 4 c 0.554,0 1,-0.446 1,-1 V 6 C 15,5.446 14.554,5 14,5 Z"
     fill="#ff9741"
     stroke-dasharray="5, 5"
     stroke-width="5"
     id="path2"
     style="fill:#4a86d5;fill-opacity:1" />
  <rect
     x="37.702"
     y="7"
     width="12"
     height="14"
     rx="1"
     ry="0"
     id="rect2" />
  <rect
     x="39.202"
     y="10"
     width="13.5"
     height="8"
     rx="1.5048"
     ry="0"
     fill="#ffffff"
     id="rect3" />
  <rect
     x="40.702"
     y="15"
     width="7"
     height="5"
     rx="1.75"
     ry="0"
     fill="#ffffff"
     id="rect4" />
  <rect
     x="40.202"
     y="11"
     width="11.5"
     height="6"
     rx="1"
     ry="0"
     id="rect5" />
  <rect
     x="40.702"
     y="9"
     width="7"
     height="4"
     rx="1.75"
     ry="0"
     fill="#ffffff"
     id="rect6" />
  <g
     id="g9">
    <rect
       x="41.702"
       y="9"
       width="5"
       height="3"
       rx="1"
       ry="0"
       id="rect7" />
    <rect
       x="41.702"
       y="16"
       width="5"
       height="3"
       rx="1"
       ry="0"
       id="rect8" />
    <rect
       x="40.155"
       y="8"
       width="8.7709"
       height="2"
       rx="0"
       ry="0"
       id="rect9" />
  </g>
  <path
     d="m 12.064319,9.7717473 c -0.341469,0 -0.934064,-0.1669205 -1.727463,-0.4846917 0.736297,-0.354023 1.325042,-0.5385298 1.727463,-0.5385298 0.434307,0 0.51939,0.194408 0.51939,0.5301427 0,0.4201424 -0.136059,0.4930788 -0.51939,0.4930788 z M 6.4395425,9.2588104 c -0.434685,0 -0.519765,-0.1944061 -0.519765,-0.5301416 0,-0.4201101 0.136432,-0.493057 0.519765,-0.493057 0.341469,0 0.934065,0.1665202 1.727464,0.4842914 -0.736297,0.3540232 -1.325423,0.5389072 -1.727464,0.5389072 z M 12.064318,8.3421709 c -0.607126,0 -1.44228,0.3365037 -2.2177305,0.7344615 L 9.0938055,8.6962051 C 9.7071165,8.3555352 10.243695,8.0087406 10.537281,7.8116656 l 0.134537,-0.090137 c 0.02742,-0.021471 0.04523,-0.052852 0.04956,-0.08733 0.0043,-0.034476 -0.0052,-0.069257 -0.02658,-0.096765 l -0.07662,-0.1077052 c -0.04371,-0.061872 -0.119571,-0.084407 -0.168647,-0.050033 l -0.02993,0.019479 C 10.184694,7.5588239 9.6262065,7.9289169 8.9742325,8.2955741 8.8615475,8.3589771 8.7513035,8.4194472 8.6434445,8.4769901 7.6254355,8.0465513 6.8833915,7.8277037 6.4375895,7.8277037 c -0.431974,0 -0.927938,0.10236 -0.927938,0.9002086 0,0.4273926 0.1610005,0.9368656 0.927938,0.9368656 0.607127,0 1.441957,-0.3364385 2.217353,-0.7348294 l 0.751643,0.381943 c -0.580666,0.32237 -1.090457,0.6492853 -1.39288,0.8509435 l -0.175156,0.114599 c -0.02961,0.0211 -0.04967,0.05297 -0.05585,0.08874 -0.0062,0.03576 0.002,0.07245 0.02287,0.102208 l 0.07668,0.107727 c 0.01974,0.0297 0.05054,0.05043 0.08557,0.05757 0.03509,0.0071 0.07153,1.76e-4 0.10146,-0.01937 l 0.108835,-0.07218 c 0.272167,-0.182184 0.773879,-0.507638 1.348036,-0.8307125 0.112684,-0.063413 0.222819,-0.123906 0.330406,-0.1814217 1.0184435,0.4304227 1.7601105,0.6492872 2.2062365,0.6492872 0.431974,0 0.927556,-0.102371 0.927556,-0.8998569 0,-0.4277716 -0.160948,-0.9368768 -0.927556,-0.9368768"
     fill="#f15a22"
     id="path2-3"
     style="stroke-width:0.054167" />
</svg>
