<?xml version="1.0" encoding="UTF-8" standalone="no"?>
<svg
   xml:space="preserve"
   width="16"
   height="16"
   version="1.0"
   viewBox="0 0 2.4 2.4"
   id="svg4800"
   sodipodi:docname="AudioStreamPlayer.svg"
   inkscape:version="1.2 (dc2aedaf03, 2022-05-15)"
   xmlns:inkscape="http://www.inkscape.org/namespaces/inkscape"
   xmlns:sodipodi="http://sodipodi.sourceforge.net/DTD/sodipodi-0.dtd"
   xmlns="http://www.w3.org/2000/svg"
   xmlns:svg="http://www.w3.org/2000/svg"><defs
     id="defs4804" /><sodipodi:namedview
     id="namedview4802"
     pagecolor="#505050"
     bordercolor="#eeeeee"
     borderopacity="1"
     inkscape:showpageshadow="0"
     inkscape:pageopacity="0"
     inkscape:pagecheckerboard="0"
     inkscape:deskcolor="#505050"
     showgrid="false"
     inkscape:zoom="14.75"
     inkscape:cx="8"
     inkscape:cy="8.0338983"
     inkscape:current-layer="svg4800" /><path
     fill="#e0e0e0"
     d="M1.252.15a.1.1 0 0 0-.082.03L.6.75H.318C.225.75.15.817.15.9v.6c0 .083.075.15.168.15H.6l.57.57c.066.067.18.02.18-.074V.256A.106.106 0 0 0 1.252.15"
     paint-order="markers stroke fill"
     id="path4796"
     style="fill:#ffffff;fill-opacity:1" /><path
     fill="none"
     stroke="#e0e0e0"
     stroke-linecap="round"
     stroke-linejoin="round"
     stroke-width=".165"
     d="M1.575.675c.45.525 0 1.05 0 1.05m.3-1.35c.675.825 0 1.65 0 1.65"
     paint-order="markers stroke fill"
     id="path4798"
     style="stroke:#ffffff;stroke-opacity:1" /></svg>
