<?xml version="1.0" encoding="UTF-8" standalone="no"?>
<svg
   width="16"
   height="16"
   version="1.1"
   id="svg5293"
   sodipodi:docname="FileBroken.svg"
   inkscape:version="1.2 (dc2aedaf03, 2022-05-15)"
   xmlns:inkscape="http://www.inkscape.org/namespaces/inkscape"
   xmlns:sodipodi="http://sodipodi.sourceforge.net/DTD/sodipodi-0.dtd"
   xmlns="http://www.w3.org/2000/svg"
   xmlns:svg="http://www.w3.org/2000/svg">
  <defs
     id="defs5297" />
  <sodipodi:namedview
     id="namedview5295"
     pagecolor="#505050"
     bordercolor="#eeeeee"
     borderopacity="1"
     inkscape:showpageshadow="0"
     inkscape:pageopacity="0"
     inkscape:pagecheckerboard="0"
     inkscape:deskcolor="#505050"
     showgrid="false"
     inkscape:zoom="14.75"
     inkscape:cx="8"
     inkscape:cy="8.0338983"
     inkscape:current-layer="svg5293" />
  <path
     fill="#ff5f5f"
     d="M2 1v8.586l1.293-1.293a1 1 0 0 1 1.414 0L7 10.587l2.293-2.293a1 1 0 0 1 1.414 0L13 10.586l1-1V6H9V1H2zm8 0v4h4zm-6 9.414-2 2V15h12v-2.586l-.293.293a1 1 0 0 1-1.414 0L10 10.414l-2.293 2.293a1 1 0 0 1-1.414 0L4 10.414z"
     id="path5291"
     style="fill:#ffffff;fill-opacity:1" />
</svg>
