<?xml version="1.0" encoding="UTF-8" standalone="no"?>
<svg
   width="16"
   height="16"
   version="1.1"
   id="svg1215"
   sodipodi:docname="PlayStart.svg"
   inkscape:version="1.2 (dc2aedaf03, 2022-05-15)"
   xmlns:inkscape="http://www.inkscape.org/namespaces/inkscape"
   xmlns:sodipodi="http://sodipodi.sourceforge.net/DTD/sodipodi-0.dtd"
   xmlns="http://www.w3.org/2000/svg"
   xmlns:svg="http://www.w3.org/2000/svg">
  <defs
     id="defs1219" />
  <sodipodi:namedview
     id="namedview1217"
     pagecolor="#505050"
     bordercolor="#eeeeee"
     borderopacity="1"
     inkscape:showpageshadow="0"
     inkscape:pageopacity="0"
     inkscape:pagecheckerboard="0"
     inkscape:deskcolor="#505050"
     showgrid="false"
     inkscape:zoom="14.75"
     inkscape:cx="8"
     inkscape:cy="8.0338983"
     inkscape:current-layer="svg1215" />
  <path
     fill="#e0e0e0"
     d="M3 3a1 1 0 0 0-1 1v8a1 1 0 0 0 1 1h1a1 1 0 0 0 1-1V4a1 1 0 0 0-1-1zm4.975 0A1 1 0 0 0 7 3.998v8a1 1 0 0 0 1.625.781l5-4a1 1 0 0 0 0-1.56l-5-4A1 1 0 0 0 7.975 3z"
     id="path1213"
     style="fill:#ffffff;fill-opacity:1" />
</svg>
