<?xml version="1.0" encoding="UTF-8" standalone="no"?>
<svg
   width="16"
   height="16"
   version="1.1"
   id="svg4"
   sodipodi:docname="RigidBody2D.svg"
   inkscape:version="1.2 (dc2aedaf03, 2022-05-15)"
   xmlns:inkscape="http://www.inkscape.org/namespaces/inkscape"
   xmlns:sodipodi="http://sodipodi.sourceforge.net/DTD/sodipodi-0.dtd"
   xmlns="http://www.w3.org/2000/svg"
   xmlns:svg="http://www.w3.org/2000/svg">
  <defs
     id="defs8" />
  <sodipodi:namedview
     id="namedview6"
     pagecolor="#505050"
     bordercolor="#eeeeee"
     borderopacity="1"
     inkscape:showpageshadow="0"
     inkscape:pageopacity="0"
     inkscape:pagecheckerboard="0"
     inkscape:deskcolor="#505050"
     showgrid="false"
     inkscape:zoom="14.75"
     inkscape:cx="8"
     inkscape:cy="8.0338983"
     inkscape:current-layer="svg4" />
  <path
     fill="#8da5f3"
     d="M8 1a7 7 0 0 0 0 14A7 7 0 0 0 8 1zm1.951 1.334A6 6 0 0 1 14.001 8h-7a2 2 0 0 0-.95-1.7c1.346-2.029 2.604-3.263 3.9-3.967zm-6.828 2.18c.146.65.358 1.283.684 1.884A2 2 0 0 0 3 8H2a6 6 0 0 1 1.123-3.486zM3.8 9.6a2 2 0 0 0 2.4 0c1.472 2.027 2.728 3.264 3.8 4a6 6 0 0 1-7.15-2.5c.25-.6.5-1 .95-1.5z"
     id="path2"
     style="fill:#ffffff;fill-opacity:1" />
</svg>
