<?xml version="1.0" encoding="UTF-8" standalone="no"?>
<svg
   width="16"
   height="16"
   version="1.1"
   id="svg5785"
   sodipodi:docname="Signals.svg"
   inkscape:version="1.2 (dc2aedaf03, 2022-05-15)"
   xmlns:inkscape="http://www.inkscape.org/namespaces/inkscape"
   xmlns:sodipodi="http://sodipodi.sourceforge.net/DTD/sodipodi-0.dtd"
   xmlns="http://www.w3.org/2000/svg"
   xmlns:svg="http://www.w3.org/2000/svg">
  <defs
     id="defs5789" />
  <sodipodi:namedview
     id="namedview5787"
     pagecolor="#505050"
     bordercolor="#eeeeee"
     borderopacity="1"
     inkscape:showpageshadow="0"
     inkscape:pageopacity="0"
     inkscape:pagecheckerboard="0"
     inkscape:deskcolor="#505050"
     showgrid="false"
     inkscape:zoom="14.75"
     inkscape:cx="8"
     inkscape:cy="8.0338983"
     inkscape:current-layer="svg5785" />
  <path
     fill="#e0e0e0"
     d="M4 2a1 1 0 0 0 0 2 8 8 0 0 1 8 8 1 1 0 0 0 2 0A10 10 0 0 0 4 2zm0 4a1 1 0 0 0 0 2 4 4 0 0 1 4 4 1 1 0 0 0 2 0 6 6 0 0 0-6-6zm0 4a2 2 0 0 0 0 4 2 2 0 0 0 0-4z"
     id="path5783"
     style="fill:#ffffff;fill-opacity:1" />
</svg>
