<?xml version="1.0" encoding="UTF-8"?>
<svg width="16" height="16" version="1.1" viewBox="0 0 16 16" xmlns="http://www.w3.org/2000/svg">
 <g>
  <path d="m2 1c-0.554 0-1 0.446-1 1v12c0 0.554 0.446 1 1 1h10c0.554 0 1-0.446 1-1v-2h-2v0.25c0 0.9695-0.7805 1.75-1.75 1.75h-3.5c-0.9695 0-1.75-0.7805-1.75-1.75v-0.25c-0.83184-0.002114-1.5-0.67155-1.5-1.5039v-4.9922c0-0.83367 0.67024-1.5039 1.5039-1.5039h0.99609v1c0 0.554 0.446 1 1 1h3c0.554 0 1-0.446 1-1v-1h3v-2c0-0.554-0.446-1-1-1h-10z" fill="#ff9741" stroke-dasharray="5, 5" stroke-width="5"/>
  <path d="m11 5v0.25c0 0.9695-0.7805 1.75-1.75 1.75h-3.5c-0.9695 0-1.75-0.7805-1.75-1.75v-0.11523c-0.29879 0.17255-0.5 0.49403-0.5 0.86523v4c0 0.554 0.446 1 1 1h0.5v1c0 0.554 0.446 1 1 1h3c0.554 0 1-0.446 1-1v-1h4c0.554 0 1-0.446 1-1v-4c0-0.554-0.446-1-1-1h-3z" fill="#ff9741" stroke-dasharray="5, 5" stroke-width="5"/>
  <rect x="37.702" y="7" width="12" height="14" rx="1" ry="0"/>
  <rect x="39.202" y="10" width="13.5" height="8" rx="1.5048" ry="0" fill="#fff"/>
  <rect x="40.702" y="15" width="7" height="5" rx="1.75" ry="0" fill="#fff"/>
  <rect x="40.202" y="11" width="11.5" height="6" rx="1" ry="0"/>
  <rect x="40.702" y="9" width="7" height="4" rx="1.75" ry="0" fill="#fff"/>
 </g>
 <g>
  <rect x="41.702" y="9" width="5" height="3" rx="1" ry="0"/>
  <rect x="41.702" y="16" width="5" height="3" rx="1" ry="0"/>
  <rect x="40.155" y="8" width="8.7709" height="2" rx="0" ry="0"/>
 </g>
</svg>
